<svg xmlns="http://www.w3.org/2000/svg" viewBox="0 0 279 61.68"><defs><style>.cls-1{fill:#1a1a1a;}.cls-2,.cls-3,.cls-4{fill:none;stroke:#1a1a1a;stroke-miterlimit:10;stroke-width:1.48px;}.cls-3{stroke-dasharray:7.51 3;}.cls-4{stroke-dasharray:7.51 3;}</style></defs><g id="Layer_2" data-name="Layer 2"><g id="Layer_1-2" data-name="Layer 1"><ellipse class="cls-1" cx="13.48" cy="58.64" rx="1.26" ry="1.22"/><path class="cls-1" d="M232.58,44.51C234,49,229.5,55,222,55c-7,0-9.65-2.92-11.71-7.75a4.62,4.62,0,0,1,1.1-3.69v-.89A5.43,5.43,0,0,0,210,45.27a84.9,84.9,0,0,1-.24-9.05c.39-9.13,4-16.49,13.44-16.49,6.72,0,9,3.68,9,8.21,0,4.26-1.61,7.46-5.43,8.8v.63l.29-.07c4.58-1.23,9.25-4.3,9.25-8.9,0-5.75-5.22-9.21-12.42-9.21-11.15,0-18.42,8.6-18.42,18.41,0,10.21,5,17.8,16.53,17.88,7.59,0,14.47-5.53,14.47-11.13C236.46,40.67,231.55,41.21,232.58,44.51Z"/><path class="cls-1" d="M214.81,40.4a14.09,14.09,0,0,0-1.45.75v.74c.45-.28.93-.55,1.45-.81Z"/><path class="cls-1" d="M218.17,39.15l-1.37.46v.61c.44-.17.9-.34,1.37-.5Z"/><path class="cls-1" d="M221.54,38.19l-1.38.38v.53l1.38-.39Z"/><path class="cls-1" d="M224.77,37.34l-1.24.33v.51l1.24-.31Z"/><path class="cls-1" d="M40,20.19h9.41a.23.23,0,1,1,0,.46H48.25v11c3.17-7,9.89-12.81,16.29-12.35,4,.31,3.25,4.53-.23,3.84-7.12-1.46-13.45,3.06-16.06,9.74v21c0,.53.24.76.79.76h2.85a.25.25,0,0,1,.24.23.25.25,0,0,1-.24.23H40.19a.25.25,0,0,1-.24-.23.25.25,0,0,1,.24-.23h3.16c.55,0,.79-.23.79-.76V22.65a1.83,1.83,0,0,0-1.58-2H40a.23.23,0,1,1,0-.46Z"/><path class="cls-1" d="M113.41,55.48c-6.24,0-9.49-2.92-9.49-8.06,0-8.05,9.49-8.59,18.43-11.5,5.85-1.92,6.4-4.84,6.4-8.75s-2-7.44-8.22-7.44c-7.36,0-10.6,5.52-8.78,10.05,1.27,3.6-4.27,5.22-4.58.15-.4-5.75,4.9-10.66,13.36-10.66,8.7,0,12.26,3.91,12.26,8.75V51.64a2.54,2.54,0,0,0,2.45,2.76A2.2,2.2,0,0,0,137.53,52a.24.24,0,0,1,.48,0c0,2.46-1.82,3.38-4.43,3.38-3.17,0-4.91-2.22-4.91-5.68v-12C127.25,47.81,121.64,55.48,113.41,55.48ZM128.67,35V31.47c-.63,2.22-2,3.3-5.93,4.83-5.61,2.07-14.31,2.76-14.31,10.89v.69c0,4,2,6.68,5.69,6.68C123.06,54.56,127.8,44.35,128.67,35Z"/><path class="cls-1" d="M164.89,54.63h2.93c.55,0,.79-.23.79-.76V28.48c0-4.61-3-9.21-9.25-8.52-5,.54-9.18,4.45-11.39,9.44V53.87c0,.53.24.76.79.76h2.85a.25.25,0,0,1,.23.23.24.24,0,0,1-.23.23H139.9a.24.24,0,0,1-.23-.23.25.25,0,0,1,.23-.23h3.17c.55,0,.79-.23.79-.76V22.65a1.84,1.84,0,0,0-1.58-2h-2.54a.23.23,0,0,1,0-.46h9.42a.23.23,0,1,1,0,.46H148v7.9c2.45-5.14,7-9.2,12.89-9.2,7.91,0,11.86,4.22,11.86,8.67v.53c2.45-5.14,7-9.2,12.89-9.2,7.91,0,11.86,4.22,11.86,8.67V51.64a2.54,2.54,0,0,0,2.45,2.76,2.2,2.2,0,0,0,2.3-2.38.24.24,0,0,1,.47,0c0,2.46-1.82,3.38-4.43,3.38-3.16,0-4.9-2.22-4.9-5.68V28.48c0-4.61-3-9.21-9.25-8.52-5,.54-9.18,4.45-11.39,9.44V53.87c0,.53.24.76.79.76h3.09a.25.25,0,0,1,.23.23.24.24,0,0,1-.23.23H164.89a.25.25,0,0,1-.24-.23A.25.25,0,0,1,164.89,54.63Z"/><path class="cls-1" d="M241,54.63h3.09c.55,0,.79-.23.79-.76V22.49a1.65,1.65,0,0,0-1.58-1.84H241a.23.23,0,1,1,0-.46h9.26a.23.23,0,1,1,0,.46H249v7.9c2.45-5.14,7-9.2,12.89-9.2,7.91,0,11.86,4.22,11.86,8.67V51.64a2.54,2.54,0,0,0,2.45,2.76,2.2,2.2,0,0,0,2.3-2.38.24.24,0,0,1,.47,0c0,2.46-1.82,3.38-4.43,3.38-3.16,0-4.9-2.22-4.9-5.68V28.48c0-4.61-3-9.21-9.25-8.52-5,.54-9.18,4.45-11.39,9.44V53.87c0,.53.24.76.79.76h2.93a.25.25,0,0,1,.23.23.24.24,0,0,1-.23.23H241a.24.24,0,0,1-.23-.23A.25.25,0,0,1,241,54.63Z"/><path class="cls-1" d="M94.75,44.51C96.17,49,91.67,55,84.15,55c-7,0-9.64-2.92-11.7-7.75a4.65,4.65,0,0,1,1.09-3.69v-.89a5.6,5.6,0,0,0-1.41,2.58,87.63,87.63,0,0,1-.23-9.05c.39-9.13,4-16.49,13.44-16.49,6.72,0,9,3.68,9,8.21,0,4.26-1.61,7.46-5.43,8.8v.63l.28-.07c4.59-1.23,9.26-4.3,9.26-8.9,0-5.75-5.22-9.21-12.42-9.21-11.15,0-18.42,8.6-18.42,18.41,0,10.21,5,17.8,16.52,17.88,7.6,0,14.48-5.53,14.48-11.13C98.63,40.67,93.72,41.21,94.75,44.51Z"/><path class="cls-1" d="M77,40.4a14.09,14.09,0,0,0-1.45.75v.74c.45-.28.93-.55,1.45-.81Z"/><path class="cls-1" d="M80.34,39.15c-.47.15-.93.3-1.37.46v.61c.44-.17.9-.34,1.37-.5Z"/><path class="cls-1" d="M83.71,38.19l-1.38.38v.53l1.38-.39Z"/><path class="cls-1" d="M86.94,37.34l-1.24.33v.51l1.24-.31Z"/><path class="cls-1" d="M10.13,2.17H2.37v.61h7.76C20.33,2.7,30.61,9.15,30.61,28S21.75,54.71,11,54.79H2.37v.61h8.86c12.58-.08,24.2-9.13,24.2-27.38S21.91,2.17,10.13,2.17Z"/><ellipse class="cls-1" cx="25.93" cy="33.47" rx="1.3" ry="1.26"/><ellipse class="cls-1" cx="30.78" cy="6.5" rx="1.3" ry="1.26"/><path class="cls-2" d="M21.64,4.67C23.11,3.18,26.52,0,28.73.9c1.28.52,2.6,2.59,1.82,10.9-2.08,22-15.75,50.65-20.88,49.07-.75-.22-1.74-1.21-2-5.47"/><polygon class="cls-1" points="12.95 30.75 14.76 30.77 15.34 29.11 15.88 30.78 17.69 30.8 16.21 31.82 16.75 33.49 15.3 32.45 13.82 33.46 14.4 31.8 12.95 30.75"/><polygon class="cls-1" points="6.47 24.97 8.28 24.97 8.84 23.3 9.4 24.97 11.21 24.98 9.75 26.01 10.31 27.68 8.84 26.64 7.38 27.68 7.94 26.01 6.47 24.97"/><polygon class="cls-1" points="0 38.97 1.81 38.95 2.36 37.28 2.93 38.95 4.74 38.94 3.28 39.98 3.85 41.64 2.38 40.62 0.92 41.66 1.47 39.99 0 38.97"/><line class="cls-3" x1="15.32" y1="3" x2="15.32" y2="30.52"/><line class="cls-4" x1="2.37" y1="2.17" x2="2.37" y2="39.46"/><line class="cls-4" x1="8.84" y1="2.17" x2="8.84" y2="26.38"/></g></g></svg>