<svg xmlns="http://www.w3.org/2000/svg" viewBox="0 0 167.36 26.12"><defs><style>.cls-1{fill:#ff0;}</style></defs><g id="Layer_2" data-name="Layer 2"><g id="Layer_1-2" data-name="Layer 1"><polygon class="cls-1" points="83.8 20.22 75.41 26.12 78.21 16.25 70 10.1 80.25 9.71 83.57 0 87.11 9.63 97.36 9.78 89.3 16.12 92.33 25.93 83.8 20.22"/><polygon class="cls-1" points="48.8 20.22 40.41 26.12 43.21 16.25 35 10.1 45.25 9.71 48.57 0 52.11 9.63 62.37 9.78 54.3 16.12 57.33 25.93 48.8 20.22"/><polygon class="cls-1" points="13.8 20.22 5.41 26.12 8.21 16.25 0 10.1 10.25 9.71 13.57 0 17.11 9.63 27.36 9.78 19.3 16.12 22.33 25.93 13.8 20.22"/><polygon class="cls-1" points="153.8 20.22 145.41 26.12 148.21 16.25 140 10.1 150.25 9.71 153.57 0 157.11 9.63 167.37 9.78 159.3 16.12 162.33 25.93 153.8 20.22"/><polygon class="cls-1" points="118.8 20.22 110.41 26.12 113.21 16.25 105 10.1 115.25 9.71 118.57 0 122.11 9.63 132.37 9.78 124.3 16.12 127.33 25.93 118.8 20.22"/></g></g></svg>